<svg viewBox="0 0 50 50" fill="none" xmlns="http://www.w3.org/2000/svg">
    <path d="M50 37.5C50 38.9734 49.4147 40.3865 48.3728 41.4284C47.3309 42.4702 45.9179 43.0556 44.4444 43.0556H5.55556C4.08213 43.0556 2.66905 42.4702 1.62718 41.4284C0.585316 40.3865 0 38.9734 0 37.5V12.5C0 11.0266 0.585316 9.6135 1.62718 8.57163C2.66905 7.52976 4.08213 6.94444 5.55556 6.94444H44.4444C45.9179 6.94444 47.3309 7.52976 48.3728 8.57163C49.4147 9.6135 50 11.0266 50 12.5V37.5Z" fill="#009B3A"/>
    <path d="M45.4555 25L25 40.45L4.54443 25L25 9.54861L45.4555 25Z" fill="#FEDF01"/>
    <path d="M24.9666 33.8639C29.9203 33.8639 33.9361 29.8481 33.9361 24.8944C33.9361 19.9408 29.9203 15.925 24.9666 15.925C20.0129 15.925 15.9972 19.9408 15.9972 24.8944C15.9972 29.8481 20.0129 33.8639 24.9666 33.8639Z" fill="#002776"/>
    <path d="M17.0514 20.6764C16.5854 21.5542 16.2699 22.5039 16.118 23.4861C21.6667 23.0833 29.1972 26.1125 32.4292 29.8681C32.9875 29.0292 33.4014 28.0903 33.6555 27.0847C29.6667 23.1847 22.6597 20.6542 17.0514 20.6764Z" fill="#CBE9D4"/>
    <path d="M16.6666 25.3236H18.0555V26.7125H16.6666V25.3236ZM18.0555 28.1014H19.4444V29.4903H18.0555V28.1014Z" fill="#88C9F9"/>
    <path d="M20.8334 25.3236H22.2223V26.7125H20.8334V25.3236ZM23.6112 26.7125H25V28.1014H23.6112V26.7125ZM29.1667 29.4903H30.5556V30.8792H29.1667V29.4903ZM25 30.8792H26.3889V32.2681H25V30.8792ZM29.1667 22.5458H30.5556V23.9347H29.1667V22.5458Z" fill="#55ACEE"/>
    <path d="M26.3889 28.1014H27.7778V29.4903H26.3889V28.1014Z" fill="#3B88C3"/>
</svg>