<svg viewBox="0 0 50 50" fill="none" xmlns="http://www.w3.org/2000/svg">
    <path d="M20.3125 13.875V16.5156H49.9727C49.9312 15.6641 49.8422 14.5875 49.5234 13.875" fill="#EC1C24"/>
    <path d="M48.125 11.2344H20.3125V13.875H49.5234C49.2062 12.8898 48.7344 11.9914 48.125 11.2344Z" fill="#E6E7E8"/>
    <path d="M42.1875 8.59375H20.3125V11.2344H48.125C46.8211 9.60156 44.675 8.59375 42.1875 8.59375Z" fill="#EC1C24"/>
    <path d="M49.9727 16.5156H20.3125V19.1563H50V17.3961C50 17.2391 49.9898 17.0859 49.9852 16.932C49.982 16.8898 49.9773 16.7813 49.9727 16.5156Z" fill="#E6E7E8"/>
    <path d="M20.3125 21.7969H50V19.1562H20.3125V21.7969Z" fill="#EC1C24"/>
    <path d="M20.3125 24.4375H50V21.7969H20.3125V24.4375Z" fill="#E6E7E8"/>
    <path d="M20.3125 24.4375H50V27.0781H20.3125V24.4375Z" fill="#EC1C24"/>
    <path d="M0 27.0781V29.7188H50V27.0781H20.3125H0Z" fill="#E6E7E8"/>
    <path d="M0 29.7188H50V32.3594H0V29.7188Z" fill="#EC1C24"/>
    <path d="M0.00390625 33.9836C0.00390625 33.9836 -0.003125 34.6234 0.015625 35H49.9844C50.0062 34.6141 49.9961 33.9836 49.9961 33.9836L50 32.3594H0L0.00390625 33.9836Z" fill="#E6E7E8"/>
    <path d="M7.8125 42.9687H42.1875C44.682 42.9687 46.7555 42.0625 48.1719 40.2812H1.82031C3.28281 42.1016 5.39531 42.9687 7.80859 42.9687" fill="#EC1C24"/>
    <path d="M1.82422 40.2813H48.1758C48.7936 39.4961 49.255 38.5997 49.5352 37.6406H0.472656C0.758505 38.5966 1.21799 39.4917 1.82812 40.2813" fill="#E6E7E8"/>
    <path d="M0.46875 37.6406H49.5312C49.7869 36.7816 49.9391 35.8951 49.9844 35H0.015625C0.0929687 35.9031 0.164844 36.5852 0.46875 37.6406Z" fill="#EC1C24"/>
    <path d="M20.3125 8.59375H7.8125C2.63516 8.59375 0 12.4414 0 17.1875V27.0781H20.3125V8.59375Z" fill="#176496"/>
    <path d="M2.18594 13.2625L2.61094 12.9359L3.03516 13.2625L2.87032 12.7375L3.29297 12.4164H2.7711L2.60938 11.8891L2.44844 12.4164H1.92735L2.35157 12.7375L2.18594 13.2625ZM4.99375 13.2625L5.41875 12.9359L5.84297 13.2625L5.67891 12.7375L6.10078 12.4164H5.57969L5.41797 11.8891L5.25703 12.4164H4.73438L5.1586 12.7375L4.99375 13.2625ZM8.09141 13.2625L8.51563 12.9359L8.94063 13.2625L8.77578 12.7375L9.19766 12.4164H8.67969L8.51563 11.8891L8.35391 12.4164H7.83594L8.25547 12.7375L8.09141 13.2625ZM11.1664 13.2625L11.5906 12.9359L12.0156 13.2625L11.8516 12.7375L12.2734 12.4164H11.75L11.5906 11.8891L11.4297 12.4164H10.9078L11.3313 12.7375L11.1664 13.2625ZM14.2523 13.2625L14.6773 12.9359L15.1016 13.2625L14.9375 12.7375L15.3602 12.4164H14.8375L14.6766 11.8891L14.5156 12.4164H13.9945L14.4164 12.7375L14.2523 13.2625ZM3.68047 14.6336L4.10469 14.3078L4.52891 14.6336L4.36563 14.1094L4.7875 13.7883H4.26563L4.10391 13.2617L3.94532 13.7883H3.42188L3.84453 14.1094L3.68047 14.6336ZM6.48907 14.6336L6.91328 14.3078L7.3375 14.6336L7.17344 14.1094L7.59531 13.7883H7.07032L6.91328 13.2617L6.75157 13.7883H6.23047L6.65313 14.1094L6.48907 14.6336ZM9.58672 14.6336L10.0102 14.3078L10.4344 14.6336L10.2703 14.1094L10.693 13.7883H10.1719L10.0102 13.2617L9.84844 13.7883H9.32657L9.74922 14.1094L9.58672 14.6336ZM12.6602 14.6336L13.0852 14.3078L13.5102 14.6336L13.3438 14.1094L13.7672 13.7883H13.2461L13.0844 13.2617L12.9242 13.7883H12.4023L12.825 14.1094L12.6602 14.6336ZM15.75 14.6336L16.1711 14.3078L16.5953 14.6336L16.4297 14.1094L16.8531 13.7883H16.3328L16.1703 13.2617L16.0102 13.7883H15.4883L15.9109 14.1094L15.75 14.6336ZM17.4898 13.2625L17.9141 12.9359L18.3391 13.2625L18.1742 12.7375L18.5961 12.4164H18.0781L17.9133 11.8891L17.7523 12.4164H17.2266L17.6539 12.7375L17.4898 13.2625ZM2.14453 24.2344L2.56953 23.9117L2.99375 24.2344L2.82969 23.7141L3.25157 23.3922L2.73047 23.3938L2.56797 22.8672L2.4086 23.3938L1.88594 23.3922L2.3086 23.7141L2.14453 24.2344ZM4.95313 24.2344L5.37735 23.9117L5.80235 24.2344L5.6375 23.7141L6.05938 23.3922L5.53907 23.3938L5.37657 22.8672L5.21641 23.3938L4.69532 23.3922L5.11719 23.7141L4.95313 24.2344ZM8.05078 24.2344L8.475 23.9117L8.9 24.2344L8.73516 23.7141L9.15703 23.3922L8.63281 23.3938L8.47422 22.8672L8.31328 23.3938L7.79219 23.3922L8.21485 23.7141L8.05078 24.2344ZM11.1258 24.2344L11.55 23.9117L11.9742 24.2344L11.8125 23.7141L12.232 23.3922L11.7102 23.3938L11.5492 22.8672L11.3883 23.3938L10.8672 23.3922L11.2891 23.7141L11.1258 24.2344ZM14.2109 24.2344L14.6359 23.9117L15.0609 24.2344L14.8984 23.7141L15.318 23.3922L14.7969 23.3938L14.6352 22.8672L14.475 23.3938L13.9531 23.3922L14.375 23.7141L14.2109 24.2344ZM17.4484 24.2344L17.8727 23.9117L18.2977 24.2344L18.1328 23.7141L18.5555 23.3922L18.0313 23.3938L17.8719 22.8672L17.7109 23.3938L17.1875 23.3922L17.6125 23.7141L17.4484 24.2344ZM2.18594 16.0063L2.61094 15.6797L3.03516 16.0063L2.87032 15.4813L3.29297 15.1602L2.7711 15.1617L2.60938 14.6336L2.44844 15.1617L1.92735 15.1602L2.35157 15.4813L2.18594 16.0063ZM4.99375 16.0063L5.41875 15.6797L5.84297 16.0063L5.67891 15.4813L6.10078 15.1602L5.57969 15.1617L5.41797 14.6336L5.25703 15.1617L4.73438 15.1602L5.1586 15.4813L4.99375 16.0063ZM8.09141 16.0063L8.51563 15.6797L8.94063 16.0063L8.77578 15.4813L9.19766 15.1602L8.67969 15.1617L8.51563 14.6336L8.35391 15.1617L7.83594 15.1602L8.25547 15.4813L8.09141 16.0063ZM11.1664 16.0063L11.5906 15.6797L12.0156 16.0063L11.8516 15.4813L12.2734 15.1602L11.75 15.1617L11.5906 14.6336L11.4297 15.1617L10.9078 15.1602L11.3313 15.4813L11.1664 16.0063ZM14.2523 16.0063L14.6773 15.6797L15.1016 16.0063L14.9375 15.4813L15.3602 15.1602L14.8375 15.1617L14.6766 14.6336L14.5156 15.1617L13.9945 15.1602L14.4164 15.4813L14.2523 16.0063ZM3.68047 17.3781L4.10469 17.0523L4.52891 17.3781L4.36563 16.8539L4.7875 16.5312H4.26563L4.10391 16.0063L3.94532 16.5312H3.42188L3.84453 16.8539L3.68047 17.3781ZM6.48907 17.3781L6.91328 17.0523L7.3375 17.3781L7.17344 16.8539L7.59531 16.5312H7.07032L6.91328 16.0063L6.75157 16.5312H6.23047L6.65313 16.8539L6.48907 17.3781ZM9.58672 17.3781L10.0102 17.0523L10.4344 17.3781L10.2703 16.8539L10.693 16.5312H10.1719L10.0102 16.0063L9.84844 16.5312H9.32657L9.74922 16.8539L9.58672 17.3781ZM12.6602 17.3781L13.0852 17.0523L13.5102 17.3781L13.3438 16.8539L13.7672 16.5312H13.2461L13.0844 16.0063L12.9242 16.5312H12.4023L12.825 16.8539L12.6602 17.3781ZM15.75 17.3781L16.1711 17.0523L16.5953 17.3781L16.4297 16.8539L16.8531 16.5312H16.3328L16.1703 16.0063L16.0102 16.5312H15.4883L15.9109 16.8539L15.75 17.3781ZM17.4898 16.0063L17.9141 15.6797L18.3391 16.0063L18.1742 15.4813L18.5961 15.1602L18.0781 15.1617L17.9133 14.6336L17.7523 15.1617L17.2266 15.1602L17.6539 15.4813L17.4898 16.0063ZM2.14453 18.75L2.56953 18.4242L2.99375 18.75L2.82891 18.2266L3.25157 17.9047L2.72969 17.9062L2.56797 17.3781L2.4086 17.9062L1.88594 17.9047L2.3086 18.2266L2.14453 18.75ZM4.95313 18.75L5.37735 18.4242L5.80235 18.75L5.6375 18.2266L6.05938 17.9047L5.53907 17.9062L5.37657 17.3781L5.21641 17.9062L4.69532 17.9047L5.11641 18.2266L4.95313 18.75ZM8.05078 18.75L8.475 18.4242L8.89922 18.75L8.73516 18.2266L9.15703 17.9047L8.63281 17.9062L8.47422 17.3781L8.31328 17.9062L7.79219 17.9047L8.21485 18.2266L8.05078 18.75ZM11.1258 18.75L11.5492 18.4242L11.9742 18.75L11.8125 18.2266L12.232 17.9047L11.7102 17.9062L11.5492 17.3781L11.3883 17.9062L10.8672 17.9047L11.2891 18.2266L11.1258 18.75ZM14.2109 18.75L14.6359 18.4242L15.0602 18.75L14.8984 18.2266L15.318 17.9047L14.7961 17.9062L14.6352 17.3781L14.475 17.9062L13.9531 17.9047L14.375 18.2266L14.2109 18.75ZM3.63907 20.1219L4.06328 19.7969L4.4875 20.1219L4.32422 19.6016L4.74532 19.2781H4.22344L4.0625 18.75L3.90235 19.2781H3.38047L3.80313 19.6016L3.63907 20.1219ZM6.44766 20.1219L6.87188 19.7969L7.2961 20.1219L7.13203 19.6016L7.55391 19.2781H7.03125L6.8711 18.75L6.71016 19.2781H6.18828L6.61172 19.6016L6.44766 20.1219ZM9.5461 20.1219L9.96875 19.7969L10.3938 20.1219L10.2266 19.6016L10.6516 19.2781H10.1305L9.96875 18.75L9.80781 19.2781H9.28594L9.7086 19.6016L9.5461 20.1219ZM12.6172 20.1219L13.0438 19.7969L13.4688 20.1219L13.3047 19.6016L13.7258 19.2781H13.2047L13.043 18.75L12.8828 19.2781H12.3609L12.7836 19.6016L12.6172 20.1219ZM15.7031 20.1219L16.1297 19.7969L16.5547 20.1219L16.3898 19.6016L16.8133 19.2781H16.2922L16.1297 18.75L15.9688 19.2781H15.4469L15.8695 19.6016L15.7031 20.1219ZM17.4484 18.75L17.8727 18.4242L18.2969 18.75L18.1328 18.2266L18.5555 17.9047L18.0313 17.9062L17.8719 17.3781L17.7109 17.9062L17.1875 17.9047L17.6125 18.2266L17.4484 18.75ZM2.14453 21.4945L2.56953 21.1719L2.99375 21.4945L2.82891 20.9703L3.25157 20.6484L2.72969 20.65L2.56797 20.1219L2.4086 20.65L1.88594 20.6484L2.3086 20.9703L2.14453 21.4945ZM4.95313 21.4945L5.37735 21.1719L5.80235 21.4945L5.6375 20.9703L6.05938 20.6484L5.53907 20.65L5.37657 20.1219L5.21641 20.65L4.69532 20.6484L5.11641 20.9703L4.95313 21.4945ZM8.05078 21.4945L8.475 21.1719L8.89922 21.4945L8.73516 20.9703L9.15703 20.6484L8.63281 20.65L8.47422 20.1219L8.31328 20.65L7.79219 20.6484L8.21485 20.9703L8.05078 21.4945ZM11.1258 21.4945L11.5492 21.1719L11.9742 21.4945L11.8125 20.9703L12.232 20.6484L11.7102 20.65L11.5492 20.1219L11.3883 20.65L10.8672 20.6484L11.2891 20.9703L11.1258 21.4945ZM14.2109 21.4945L14.6359 21.1719L15.0602 21.4945L14.8984 20.9703L15.318 20.6484L14.7961 20.65L14.6352 20.1219L14.475 20.65L13.9531 20.6484L14.375 20.9703L14.2109 21.4945ZM3.63907 22.8672L4.06328 22.5406L4.4875 22.8672L4.32422 22.3422L4.74532 22.0234H4.22344L4.0625 21.4945L3.90235 22.0234H3.38047L3.80313 22.3422L3.63907 22.8672ZM6.44766 22.8672L6.87188 22.5406L7.2961 22.8672L7.13203 22.3422L7.55391 22.0234H7.03125L6.8711 21.4945L6.71016 22.0234H6.18828L6.61172 22.3422L6.44766 22.8672ZM9.5461 22.8672L9.96875 22.5406L10.3938 22.8672L10.2266 22.3422L10.6516 22.0234H10.1305L9.96875 21.4945L9.80781 22.0234H9.28594L9.7086 22.3422L9.5461 22.8672ZM12.6172 22.8672L13.0438 22.5406L13.4688 22.8672L13.3047 22.3422L13.7258 22.0234H13.2047L13.043 21.4945L12.8828 22.0234H12.3609L12.7836 22.3422L12.6172 22.8672ZM15.7031 22.8672L16.1297 22.5406L16.5547 22.8672L16.3898 22.3422L16.8133 22.0234H16.2922L16.1297 21.4945L15.9688 22.0234H15.4469L15.8695 22.3422L15.7031 22.8672ZM17.4484 21.4945L17.8727 21.1719L18.2969 21.4945L18.1328 20.9703L18.5555 20.6484L18.0313 20.65L17.8719 20.1219L17.7109 20.65L17.1875 20.6484L17.6125 20.9703L17.4484 21.4945Z" fill="white"/>
</svg>
