<svg viewBox="0 0 30 30" fill="none" xmlns="http://www.w3.org/2000/svg">
    <path d="M12.5 6.25L15 3.75M10 20L20 10M15 26.25L17.5 23.75M20.625 23.75C21.4538 23.75 22.2487 23.4208 22.8347 22.8347C23.4208 22.2487 23.75 21.4538 23.75 20.625C23.75 19.7962 23.4208 19.0013 22.8347 18.4153C22.2487 17.8292 21.4538 17.5 20.625 17.5C19.7962 17.5 19.0013 17.8292 18.4153 18.4153C17.8292 19.0013 17.5 19.7962 17.5 20.625C17.5 21.4538 17.8292 22.2487 18.4153 22.8347C19.0013 23.4208 19.7962 23.75 20.625 23.75ZM9.375 12.5C10.2038 12.5 10.9987 12.1708 11.5847 11.5847C12.1708 10.9987 12.5 10.2038 12.5 9.375C12.5 8.5462 12.1708 7.75134 11.5847 7.16529C10.9987 6.57924 10.2038 6.25 9.375 6.25C8.5462 6.25 7.75134 6.57924 7.16529 7.16529C6.57924 7.75134 6.25 8.5462 6.25 9.375C6.25 10.2038 6.57924 10.9987 7.16529 11.5847C7.75134 12.1708 8.5462 12.5 9.375 12.5ZM6.875 26.25C7.7038 26.25 8.49866 25.9208 9.08471 25.3347C9.67076 24.7487 10 23.9538 10 23.125C10 22.2962 9.67076 21.5013 9.08471 20.9153C8.49866 20.3292 7.7038 20 6.875 20C6.0462 20 5.25134 20.3292 4.66529 20.9153C4.07924 21.5013 3.75 22.2962 3.75 23.125C3.75 23.9538 4.07924 24.7487 4.66529 25.3347C5.25134 25.9208 6.0462 26.25 6.875 26.25ZM23.125 10C23.9538 10 24.7487 9.67076 25.3347 9.08471C25.9208 8.49866 26.25 7.7038 26.25 6.875C26.25 6.0462 25.9208 5.25134 25.3347 4.66529C24.7487 4.07924 23.9538 3.75 23.125 3.75C22.2962 3.75 21.5013 4.07924 20.9153 4.66529C20.3292 5.25134 20 6.0462 20 6.875C20 7.7038 20.3292 8.49866 20.9153 9.08471C21.5013 9.67076 22.2962 10 23.125 10Z" stroke="#182825" stroke-width="2" stroke-linecap="round" stroke-linejoin="round"/>
</svg>