<svg viewBox="0 0 25 25" fill="none" xmlns="http://www.w3.org/2000/svg">
    <path d="M12.5 0.00066959C9.21984 -0.0342183 6.06066 1.29547 3.71674 3.6975C1.37283 6.09954 0.0359775 9.37737 0 12.8106C0.0126391 15.5239 0.846526 18.1631 2.38189 20.3493C3.91725 22.5354 6.07509 24.156 8.54545 24.9783C9.17045 25.0972 9.39773 24.7047 9.39773 24.3598V22.1832C5.92045 22.9563 5.18182 20.4704 5.18182 20.4704C4.95034 19.69 4.45822 19.023 3.79545 18.5911C2.65909 17.8061 3.88636 17.818 3.88636 17.818C4.27915 17.873 4.65495 18.0203 4.98558 18.249C5.31621 18.4776 5.59309 18.7817 5.79545 19.1383C6.1481 19.7783 6.72674 20.2479 7.40683 20.4458C8.08692 20.6438 8.81408 20.5544 9.43182 20.1968C9.49535 19.5455 9.77715 18.9387 10.2273 18.4841C7.45455 18.163 4.54545 17.0687 4.54545 12.1564C4.52066 10.8751 4.973 9.63383 5.80682 8.69526C5.42708 7.59513 5.47192 6.38342 5.93182 5.31733C5.93182 5.31733 6.98864 4.9724 9.34091 6.62568C11.3887 6.05568 13.5432 6.05568 15.5909 6.62568C17.9773 4.9724 19 5.31733 19 5.31733C19.4599 6.38342 19.5047 7.59513 19.125 8.69526C19.9782 9.61663 20.4551 10.8495 20.4545 12.1327C20.4545 17.0568 17.5227 18.1392 14.7727 18.4603C15.0738 18.7663 15.3064 19.1383 15.4538 19.5497C15.6012 19.961 15.6596 20.4013 15.625 20.8391V24.3479C15.625 24.7642 15.8523 25.0972 16.4773 24.9664C18.9406 24.139 21.0912 22.5181 22.6218 20.335C24.1524 18.1519 24.9848 15.5184 25 12.8106C24.964 9.37737 23.6272 6.09954 21.2833 3.6975C18.9393 1.29547 15.7802 -0.0342183 12.5 0.00066959Z" fill="#182825"/>
</svg>
