<svg viewBox="0 0 20 20" fill="none" xmlns="http://www.w3.org/2000/svg">
    <path d="M10.4525 13.275L17.09 6.30875C17.2008 6.19251 17.2626 6.03809 17.2626 5.8775C17.2626 5.71691 17.2008 5.56249 17.09 5.44625L17.0825 5.43875C17.0287 5.38221 16.9641 5.33718 16.8924 5.30641C16.8207 5.27565 16.7436 5.25978 16.6656 5.25978C16.5876 5.25978 16.5104 5.27565 16.4387 5.30641C16.3671 5.33718 16.3024 5.38221 16.2487 5.43875L9.9987 11.9988L3.7512 5.43875C3.69749 5.38221 3.63283 5.33718 3.56116 5.30641C3.4895 5.27565 3.41232 5.25978 3.33433 5.25978C3.25634 5.25978 3.17916 5.27565 3.1075 5.30641C3.03583 5.33718 2.97117 5.38221 2.91745 5.43875L2.90995 5.44625C2.79915 5.56249 2.73733 5.71691 2.73733 5.8775C2.73733 6.03809 2.79915 6.19251 2.90995 6.30875L9.54745 13.275C9.60582 13.3363 9.67603 13.385 9.75381 13.4184C9.83159 13.4517 9.91533 13.4689 9.99995 13.4689C10.0846 13.4689 10.1683 13.4517 10.2461 13.4184C10.3239 13.385 10.3941 13.3363 10.4525 13.275Z" fill="#DDE4E4"/>
</svg>