<svg viewBox="0 0 26 25" fill="none" xmlns="http://www.w3.org/2000/svg">
    <path d="M21.9896 2.08334H4.34378C4.14542 2.08058 3.94847 2.11693 3.76416 2.1903C3.57985 2.26367 3.4118 2.37263 3.26961 2.51095C3.12742 2.64928 3.01387 2.81426 2.93544 2.99647C2.85701 3.17869 2.81525 3.37456 2.81253 3.57292V21.4271C2.81525 21.6254 2.85701 21.8213 2.93544 22.0035C3.01387 22.1857 3.12742 22.3507 3.26961 22.4891C3.4118 22.6274 3.57985 22.7363 3.76416 22.8097C3.94847 22.8831 4.14542 22.9194 4.34378 22.9167H21.9896C22.188 22.9194 22.3849 22.8831 22.5692 22.8097C22.7535 22.7363 22.9216 22.6274 23.0638 22.4891C23.206 22.3507 23.3195 22.1857 23.398 22.0035C23.4764 21.8213 23.5181 21.6254 23.5209 21.4271V3.57292C23.5181 3.37456 23.4764 3.17869 23.398 2.99647C23.3195 2.81426 23.206 2.64928 23.0638 2.51095C22.9216 2.37263 22.7535 2.26367 22.5692 2.1903C22.3849 2.11693 22.188 2.08058 21.9896 2.08334ZM9.09378 19.5208H5.96878V10.1458H9.09378V19.5208ZM7.53128 8.83334C7.1003 8.83334 6.68698 8.66213 6.38223 8.35738C6.07749 8.05264 5.90628 7.63931 5.90628 7.20834C5.90628 6.77736 6.07749 6.36403 6.38223 6.05929C6.68698 5.75454 7.1003 5.58334 7.53128 5.58334C7.76013 5.55738 7.99188 5.58006 8.21136 5.64988C8.43084 5.7197 8.63309 5.8351 8.80488 5.9885C8.97667 6.14191 9.11412 6.32988 9.20823 6.54009C9.30234 6.7503 9.35099 6.97802 9.35099 7.20834C9.35099 7.43865 9.30234 7.66637 9.20823 7.87658C9.11412 8.0868 8.97667 8.27476 8.80488 8.42817C8.63309 8.58158 8.43084 8.69697 8.21136 8.76679C7.99188 8.83661 7.76013 8.85929 7.53128 8.83334ZM20.3646 19.5208H17.2396V14.4896C17.2396 13.2292 16.7917 12.4063 15.6563 12.4063C15.3049 12.4088 14.9627 12.519 14.6759 12.7221C14.3891 12.9251 14.1714 13.2111 14.0521 13.5417C13.9706 13.7865 13.9353 14.0443 13.9479 14.3021V19.5104H10.8229V10.1354H13.9479V11.4583C14.2318 10.9657 14.6447 10.5599 15.1422 10.2846C15.6396 10.0093 16.2027 9.87485 16.7709 9.89584C18.8542 9.89584 20.3646 11.2396 20.3646 14.125V19.5208Z" fill="#182825"/>
</svg>
