<svg viewBox="0 0 28 27" fill="none" xmlns="http://www.w3.org/2000/svg">
    <path fill-rule="evenodd" clip-rule="evenodd" d="M14 12C16.3412 12 18.4625 12.775 20.0188 13.8588C21.4975 14.89 22.75 16.4225 22.75 18.0713C22.75 18.9762 22.3638 19.7263 21.755 20.2838C21.1825 20.81 20.435 21.1513 19.665 21.3838C18.1262 21.85 16.1 22 14 22C11.9 22 9.87375 21.85 8.335 21.3838C7.565 21.1513 6.8175 20.81 6.24375 20.2838C5.6375 19.7275 5.25 18.9775 5.25 18.0725C5.25 16.4237 6.5025 14.8912 7.98125 13.86C9.5375 12.775 11.6587 12 14 12ZM14 14.5C12.2 14.5 10.5712 15.1 9.4125 15.9087C8.17625 16.7712 7.75 17.6488 7.75 18.0713C7.75 18.4513 8.19 18.6888 8.59 18.8388L8.84625 18.9263L9.05875 18.9913C10.2338 19.3463 11.9587 19.5 14 19.5C15.885 19.5 17.4987 19.3687 18.66 19.07L19.04 18.9613L19.2775 18.8863C19.7062 18.74 20.25 18.4937 20.25 18.0713C20.25 17.6488 19.8237 16.7712 18.5875 15.9087C17.43 15.1012 15.8 14.5 14 14.5ZM22.75 13.25C24.055 13.25 25.24 13.6813 26.1163 14.2913C26.9163 14.85 27.75 15.7787 27.75 16.9112C27.75 18.58 26.1288 19.1775 24.6713 19.3862L24.2962 19.4325L23.935 19.4638L23.7625 19.4738C23.915 19.0425 24 18.5737 24 18.0713C23.9993 17.6973 23.9544 17.3247 23.8662 16.9613C24.3487 16.9237 24.745 16.8612 25.04 16.7725C25.17 16.7325 25.0525 16.61 24.915 16.5037L24.7812 16.4062L24.6862 16.3425C24.3111 16.0864 23.888 15.9087 23.4425 15.82C22.9675 14.87 22.2375 14.0475 21.46 13.3912C21.8836 13.2977 22.3162 13.2503 22.75 13.25ZM5.25 13.25C5.6975 13.2517 6.1275 13.2987 6.54 13.3912C5.7625 14.0475 5.0325 14.87 4.5575 15.82C4.11198 15.9087 3.68895 16.0864 3.31375 16.3425L3.15375 16.4525C2.995 16.5675 2.80875 16.7275 2.96 16.7725C3.255 16.8612 3.65125 16.925 4.135 16.9613C4.04527 17.3244 3.99994 17.6972 4 18.0713C4 18.5737 4.085 19.0425 4.2375 19.4738L3.8875 19.4487L3.5175 19.4113C2.015 19.2275 0.25 18.6525 0.25 16.9112C0.25 15.78 1.0825 14.85 1.88375 14.2913C2.87497 13.6123 4.04852 13.2493 5.25 13.25ZM22.125 5.75C22.9538 5.75 23.7487 6.07924 24.3347 6.66529C24.9208 7.25134 25.25 8.0462 25.25 8.875C25.25 9.7038 24.9208 10.4987 24.3347 11.0847C23.7487 11.6708 22.9538 12 22.125 12C21.2962 12 20.5013 11.6708 19.9153 11.0847C19.3292 10.4987 19 9.7038 19 8.875C19 8.0462 19.3292 7.25134 19.9153 6.66529C20.5013 6.07924 21.2962 5.75 22.125 5.75ZM5.875 5.75C6.7038 5.75 7.49866 6.07924 8.08471 6.66529C8.67076 7.25134 9 8.0462 9 8.875C9 9.7038 8.67076 10.4987 8.08471 11.0847C7.49866 11.6708 6.7038 12 5.875 12C5.0462 12 4.25134 11.6708 3.66529 11.0847C3.07924 10.4987 2.75 9.7038 2.75 8.875C2.75 8.0462 3.07924 7.25134 3.66529 6.66529C4.25134 6.07924 5.0462 5.75 5.875 5.75ZM14 0.75C15.3261 0.75 16.5979 1.27678 17.5355 2.21447C18.4732 3.15215 19 4.42392 19 5.75C19 7.07608 18.4732 8.34785 17.5355 9.28553C16.5979 10.2232 15.3261 10.75 14 10.75C12.6739 10.75 11.4021 10.2232 10.4645 9.28553C9.52678 8.34785 9 7.07608 9 5.75C9 4.42392 9.52678 3.15215 10.4645 2.21447C11.4021 1.27678 12.6739 0.75 14 0.75ZM22.125 8.25C21.9592 8.25 21.8003 8.31585 21.6831 8.43306C21.5658 8.55027 21.5 8.70924 21.5 8.875C21.5 9.04076 21.5658 9.19973 21.6831 9.31694C21.8003 9.43415 21.9592 9.5 22.125 9.5C22.2908 9.5 22.4497 9.43415 22.5669 9.31694C22.6842 9.19973 22.75 9.04076 22.75 8.875C22.75 8.70924 22.6842 8.55027 22.5669 8.43306C22.4497 8.31585 22.2908 8.25 22.125 8.25ZM5.875 8.25C5.70924 8.25 5.55027 8.31585 5.43306 8.43306C5.31585 8.55027 5.25 8.70924 5.25 8.875C5.25 9.04076 5.31585 9.19973 5.43306 9.31694C5.55027 9.43415 5.70924 9.5 5.875 9.5C6.04076 9.5 6.19973 9.43415 6.31694 9.31694C6.43415 9.19973 6.5 9.04076 6.5 8.875C6.5 8.70924 6.43415 8.55027 6.31694 8.43306C6.19973 8.31585 6.04076 8.25 5.875 8.25ZM14 3.25C13.337 3.25 12.7011 3.51339 12.2322 3.98223C11.7634 4.45107 11.5 5.08696 11.5 5.75C11.5 6.41304 11.7634 7.04893 12.2322 7.51777C12.7011 7.98661 13.337 8.25 14 8.25C14.663 8.25 15.2989 7.98661 15.7678 7.51777C16.2366 7.04893 16.5 6.41304 16.5 5.75C16.5 5.08696 16.2366 4.45107 15.7678 3.98223C15.2989 3.51339 14.663 3.25 14 3.25Z" fill="#182825"/>
</svg>