<svg viewBox="0 0 50 50" fill="none" xmlns="http://www.w3.org/2000/svg">
    <path d="M25 3.125C19.1984 3.125 13.6344 5.42968 9.53204 9.53204C5.42968 13.6344 3.125 19.1984 3.125 25C3.125 30.8016 5.42968 36.3656 9.53204 40.468C13.6344 44.5703 19.1984 46.875 25 46.875C30.8016 46.875 36.3656 44.5703 40.468 40.468C44.5703 36.3656 46.875 30.8016 46.875 25C46.875 19.1984 44.5703 13.6344 40.468 9.53204C36.3656 5.42968 30.8016 3.125 25 3.125ZM25 43.75V6.25C27.4623 6.25 29.9005 6.73498 32.1753 7.67726C34.4502 8.61953 36.5172 10.0006 38.2583 11.7417C39.9994 13.4828 41.3805 15.5498 42.3227 17.8247C43.265 20.0995 43.75 22.5377 43.75 25C43.75 27.4623 43.265 29.9005 42.3227 32.1753C41.3805 34.4502 39.9994 36.5172 38.2583 38.2583C36.5172 39.9994 34.4502 41.3805 32.1753 42.3227C29.9005 43.265 27.4623 43.75 25 43.75Z" fill="#DDE4E4"/>
</svg>