<svg viewBox="0 0 150 150" xmlns="http://www.w3.org/2000/svg">
  <rect width="100%" height="100%" fill="#242938"/>
  <path d="M119.833 61.9771C120.936 74.8298 100.709 87.0624 74.6557 89.298C48.6019 91.5336 26.5869 82.9234 25.4846 70.0716C24.3816 57.2166 44.6084 44.9855 70.6621 42.7499C96.7158 40.5151 118.731 49.1222 119.833 61.9771Z" fill="#BBE6FB"/>
  <path opacity="0.35" d="M71.4268 44.2564C61.4888 44.0953 49.859 48.0407 41.206 51.7363C40.2869 54.3784 39.8184 57.1562 39.8199 59.9536C39.8199 75.1997 53.5865 87.5607 70.5696 87.5607C87.5527 87.5607 101.319 75.1997 101.319 59.9536C101.319 55.1285 99.9371 50.5959 97.5133 46.6483C90.5903 45.5725 81.0684 44.4135 71.4268 44.2564Z" fill="white"/>
  <path d="M70.568 44.2544C65.0662 43.9183 55.5825 46.7886 47.6755 49.6527C46.4402 52.5606 45.8042 55.6877 45.8055 58.8471C45.8055 72.2061 57.9176 83.0348 70.7298 83.0348C83.458 83.0348 94.7191 72.1882 95.6541 58.8471C95.9574 54.5027 94.4624 50.4096 92.3855 46.8797C84.1876 45.4359 75.4864 44.5538 70.568 44.2536" fill="white"/>
  <path d="M56.4488 57.0936C57.124 55.5986 58.1469 54.8666 59.1371 53.6135C59.0266 53.3163 58.7863 52.3455 58.7863 52.0095C58.7869 51.2882 59.0737 50.5967 59.5837 50.0867C60.0937 49.5767 60.7852 49.2899 61.5064 49.2893C61.8611 49.2893 62.1995 49.3593 62.5099 49.483C67.0129 46.0511 72.941 44.5545 78.8987 45.8862C79.4432 46.0091 79.9768 46.1576 80.5003 46.3202C74.6127 45.5035 67.9759 47.5897 63.4612 51.2332C63.5989 51.5583 63.9816 52.4887 63.9816 52.862C63.9816 54.3649 63.0093 54.7305 61.5064 54.7305C61.1657 54.7305 60.839 54.6651 60.538 54.55C59.5182 55.919 58.2682 58.528 57.6568 60.1584C60.153 62.3916 62.4088 63.2014 65.3483 64.2997C65.3405 64.1597 65.4494 64.0298 65.4494 63.8875C65.4494 59.358 69.4368 55.6763 73.967 55.6763C78.0267 55.6763 81.3886 58.6283 82.0444 62.5013C84.0699 61.2124 86.0286 60.2245 87.5213 58.3149C87.1736 57.8901 86.7979 56.6868 86.7979 56.0948C86.7983 55.4402 87.0586 54.8126 87.5215 54.3498C87.9845 53.887 88.6122 53.6269 89.2668 53.6267C89.4597 53.6267 89.6456 53.6547 89.8253 53.6967C90.5866 52.1339 91.156 50.4848 91.5211 48.7853C84.4371 43.5409 70.7311 44.2565 70.7311 44.2565C70.7311 44.2565 59.8247 43.6871 52.4412 47.2855C52.9336 50.8458 54.354 54.2303 56.4488 57.0936Z" fill="white"/>
  <path d="M90.3073 55.0505C90.706 55.4013 91.0408 55.8188 91.2967 56.2842C91.9587 57.4743 90.6301 58.5648 89.2665 58.5648C89.1305 58.5632 88.9949 58.5497 88.8612 58.5244C87.3257 60.9241 84.6351 64.0021 82.2455 65.5516C85.91 66.1521 89.3653 67.6192 92.1158 69.8874C94.118 66.2999 95.6543 61.1186 95.6543 56.7182C95.6543 53.3679 94.1756 50.913 91.9431 49.1115C91.8256 50.906 90.8681 53.4154 90.3073 55.0505ZM60.5602 77.7749C61.7815 74.4029 64.7848 71.7901 67.6255 69.4915C67.2102 68.9229 66.5863 67.5134 66.3265 66.846C62.9035 65.8029 59.8254 63.8554 57.4169 61.2088C57.3998 61.2843 57.378 61.3582 57.3601 61.4344C56.9255 63.3963 56.8217 65.4169 57.0528 67.413C57.872 67.5667 58.6118 68.0018 59.1442 68.6431C59.6765 69.2844 59.968 70.0916 59.9683 70.9251C59.9683 71.9628 59.0589 73.4656 58.3534 74.1198C59.1204 75.7743 59.6431 76.5731 60.5602 77.7749Z" fill="white"/>
  <path d="M60.3446 80.606C58.8884 79.1584 57.8811 76.2694 56.936 74.4555C56.7594 74.4827 56.5781 74.5013 56.393 74.5013C54.4172 74.5013 52.3481 72.8437 52.8156 70.9255C53.0746 69.8637 53.8074 69.1699 55.0006 68.5904C54.7292 66.3913 54.6553 63.2301 55.1663 60.944C55.3126 60.2906 55.6221 59.9833 55.8275 59.361C53.6479 56.1718 52.24 51.9846 52.24 47.8315C52.24 47.6799 52.2478 47.5297 52.2509 47.3796C48.5677 49.2263 45.8055 52.137 45.8055 56.7178C45.8055 66.8511 51.6426 76.7922 60.3259 80.6885L60.3446 80.606ZM81.6985 66.5975C80.576 69.7891 77.5416 72.0814 73.9665 72.0814C72.0537 72.0814 70.2989 71.4218 68.905 70.325C66.03 72.5637 63.4218 76.4966 62.0963 79.9083C62.6914 80.5485 63.106 81.0751 63.7734 81.6429C65.7842 82.1664 68.5534 81.6429 70.7306 81.6429C79.4862 81.6429 87.2408 77.7481 91.687 70.9177C88.7304 68.8704 85.2432 66.9219 81.6985 66.5975Z" fill="white"/>
  <path d="M56.2249 58.2779C56.8903 56.8035 57.7335 55.4162 58.7358 54.1466C58.6213 53.8422 58.5623 53.5197 58.5616 53.1945C58.562 52.473 58.8488 51.7811 59.359 51.2709C59.8692 50.7608 60.561 50.474 61.2825 50.4735C61.6373 50.4735 61.9756 50.5435 62.2852 50.668C66.7883 47.2353 72.7171 45.7395 78.6748 47.0712C79.2141 47.1939 79.7482 47.3387 80.2756 47.5052C74.388 46.6885 68.3043 48.4931 63.7904 52.1374C63.9646 52.5511 64.0339 53.0014 63.9919 53.4483C63.9499 53.8952 63.798 54.3248 63.5497 54.6987C63.3014 55.0727 62.9645 55.3794 62.5689 55.5916C62.1733 55.8037 61.7314 55.9147 61.2825 55.9147C60.9512 55.9143 60.6228 55.8534 60.3133 55.735C59.2831 57.1157 58.4532 58.6351 57.8483 60.2482C59.9921 62.5584 62.6236 64.3856 65.5623 65.484C65.5561 65.344 65.5413 65.2055 65.5413 65.0632C65.5413 60.5337 69.2129 56.8614 73.7431 56.8614C77.8028 56.8614 81.164 59.8134 81.8205 63.6856C83.846 62.3974 85.646 60.7421 87.1379 58.8317C86.7747 58.396 86.5749 57.8471 86.5732 57.2798C86.5734 56.625 86.8337 55.997 87.2969 55.534C87.76 55.071 88.388 54.8109 89.0429 54.8109C89.2358 54.8109 89.421 54.8389 89.6014 54.8809C90.3617 53.3181 90.9308 51.6693 91.2964 49.9703C84.2132 44.7259 70.5064 45.4408 70.5064 45.4408C70.5064 45.4408 59.6 44.8721 52.2166 48.4705C52.7089 52.03 54.1293 55.4153 56.2249 58.2779Z" fill="#1287B1"/>
  <path d="M90.6902 55.4546C90.9479 55.6839 91.1543 55.9651 91.2958 56.2797C91.4374 56.5943 91.5109 56.9352 91.5116 57.2802C91.5114 57.9349 91.2512 58.5628 90.7882 59.0258C90.3252 59.4887 89.6974 59.7489 89.0426 59.7491C88.9066 59.7475 88.771 59.734 88.6374 59.7087C87.1002 62.1095 85.0673 64.1539 82.6751 65.7045C86.2065 66.258 89.5245 67.7498 92.2824 70.0239C94.3506 66.319 95.4342 62.1456 95.4297 57.9025C95.4297 54.553 93.951 52.0973 91.7185 50.2958C91.6053 52.0533 91.2596 53.788 90.6902 55.4546ZM60.9369 78.5859C62.1688 75.1787 64.3069 72.1722 67.1209 69.8901C66.7029 69.3168 66.3607 68.692 66.1027 68.031C62.6795 66.9878 59.6014 65.04 57.193 62.3931C57.1759 62.4685 57.1534 62.5424 57.1362 62.6187C56.7001 64.5806 56.5963 66.6018 56.829 68.5981C57.6481 68.7518 58.3878 69.1869 58.92 69.8282C59.4523 70.4696 59.7436 71.2767 59.7436 72.1102C59.743 72.6032 59.6404 73.0907 59.4425 73.5422C59.2445 73.9937 58.9553 74.3994 58.5932 74.7339C59.2375 76.0963 60.0231 77.3874 60.9369 78.5859Z" fill="#1287B1"/>
  <path d="M60.3354 80.5639C58.8814 79.1189 57.6592 77.4581 56.7121 75.6401C56.5321 75.6678 56.3504 75.6829 56.1684 75.6852C55.3583 75.6871 54.5716 75.4137 53.9373 74.9097C53.3031 74.4058 52.8589 73.7013 52.6777 72.9117C52.4965 72.1222 52.589 71.2945 52.94 70.5644C53.291 69.8343 53.8797 69.2452 54.6095 68.8937C54.3388 66.6954 54.4306 64.4132 54.9424 62.127C55.0897 61.4736 55.2663 60.8355 55.4722 60.2127C53.2155 56.9148 52.0106 53.0107 52.0161 49.0146C52.0161 48.8629 52.0231 48.7128 52.0262 48.5634C48.3431 50.4101 45.5809 53.3209 45.5809 57.9017C45.5809 68.0357 51.6326 76.7501 60.3167 80.6464L60.3354 80.5639ZM81.4738 67.7805C80.3513 70.9721 77.3176 73.2645 73.7418 73.2645C71.8291 73.2645 70.075 72.6048 68.6803 71.5088C65.8053 73.7475 63.6358 76.7991 62.3111 80.2116C62.9054 80.8517 63.5402 81.4546 64.2076 82.0217C66.2641 82.5575 68.3807 82.8278 70.5059 82.826C79.2615 82.826 86.9593 78.3058 91.4055 71.4762C88.4489 69.4281 85.0193 68.1057 81.4738 67.7805Z" fill="#1287B1"/>
  <path d="M81.7615 65.6671L89.3395 63.8593L81.7328 63.4712L87.923 58.7402L80.8989 61.2581L85.6726 54.6432L79.0795 59.0249L81.385 51.282L76.8571 57.6644L76.7536 49.5987L73.7752 56.7831L71.2907 49.5132L71.4253 58.0775L67.1322 50.3999L69.4557 58.552L62.4923 53.4881L67.9467 60.341L59.3023 57.1627L66.1249 62.211L57.3763 62.4794L66.3209 64.7881L57.3685 66.7234L66.2058 67.3644L58.7531 72.1366L66.4267 69.3542L61.1022 76.0975L67.8308 70.6719L65.4077 79.7207L70.6023 72.3567L69.8742 81.054L72.8223 73.1696L75.3325 81.4562L75.9423 73.1447L79.6675 80.2357L77.4669 72.1249L84.288 77.4089L79.8845 70.6719L87.3684 73.5873L81.6456 67.9641L89.3193 68.567L81.7615 65.6671Z" fill="white"/>
  <path opacity="0.35" d="M1.08853 80.1664C24.5901 56.6656 43.36 49.4105 60.3952 46.0983C62.6487 45.6604 63.0749 40.735 63.0749 40.735C63.0749 40.735 63.3907 44.3629 64.9682 44.8359C66.5457 45.3088 68.5954 39.1575 68.5954 39.1575C68.5954 39.1575 66.7029 44.678 68.5954 44.9938C70.4887 45.3096 73.958 39.6312 73.958 39.6312C73.958 39.6312 72.5392 44.5201 73.4859 44.8351C74.431 45.1509 79.1627 37.7387 79.1627 37.7387C79.1627 37.7387 76.3235 42.6275 79.0056 43.1012C81.6876 43.5742 85.5995 39.7642 85.5995 39.7642C85.5995 39.7642 82.5238 43.2506 83.8944 43.7313C89.7308 45.7833 94.4532 38.1976 94.4532 38.1976C94.4532 38.1976 93.3595 41.5237 90.5203 45.1517C96.6708 46.7284 101.239 37.4617 101.239 37.4617L96.6708 46.7284C99.0371 47.9909 108.501 37.1078 108.501 37.1078C108.501 37.1078 103.612 45.6254 100.773 47.3593C102.349 48.6217 108.028 43.5742 108.028 43.5742C108.028 43.5742 103.454 49.2518 105.188 49.5676C107.713 51.6181 117.017 39.0004 117.017 39.0004C117.017 39.0004 113.391 46.4134 108.028 52.2489C112.51 54.4915 123.643 40.1041 123.643 40.1041C123.643 40.1041 123.327 44.678 115.283 51.9331C121.277 51.1451 129.006 39.7883 129.006 39.7883C129.006 39.7883 126.167 48.3059 119.384 54.2994C125.269 53.6864 134.683 39.1575 134.683 39.1575C134.683 39.1575 131.056 49.2518 123.643 55.0881C131.845 56.9021 143.675 44.678 143.675 44.678C143.675 44.678 139.022 53.3535 132.948 56.9021C139.731 59.504 149.037 48.7789 149.037 48.7789C149.037 48.7789 139.731 63.1328 124.905 62.5011C120.041 62.295 105.326 47.7428 73.8009 48.9368C32.1611 50.5151 23.3284 68.1795 1.08853 80.1664Z" fill="white"/>
  <path d="M2.05186 78.3816C25.5527 54.8808 44.3225 47.6257 61.357 44.3128C63.612 43.8748 64.0383 38.9502 64.0383 38.9502C64.0383 38.9502 64.3525 42.5789 65.9316 43.0511C67.5083 43.524 69.558 37.3735 69.558 37.3735C69.558 37.3735 67.6654 42.894 69.558 43.209C71.4513 43.524 74.9214 37.8464 74.9214 37.8464C74.9214 37.8464 73.5017 42.7353 74.4476 43.0503C75.3943 43.3669 80.1253 35.9531 80.1253 35.9531C80.1253 35.9531 77.2868 40.8427 79.9681 41.3157C82.6494 41.7902 86.5621 37.9794 86.5621 37.9794C86.5621 37.9794 83.4864 41.4658 84.857 41.9465C90.6933 43.9977 95.4149 36.4128 95.4149 36.4128C95.4149 36.4128 94.3205 39.7389 91.4828 43.3669C97.6334 44.9444 102.202 35.6769 102.202 35.6769L97.6334 44.9444C99.9997 46.2053 109.463 35.3238 109.463 35.3238C109.463 35.3238 104.574 43.8398 101.735 45.5745C103.313 46.8369 108.991 41.7894 108.991 41.7894C108.991 41.7894 104.416 47.4678 106.152 47.7828C108.675 49.834 117.98 37.2156 117.98 37.2156C117.98 37.2156 114.352 44.6286 108.991 50.4641C113.473 52.7075 124.606 38.3193 124.606 38.3193C124.606 38.3193 124.29 42.894 116.246 50.1499C122.24 49.3603 129.968 38.0035 129.968 38.0035C129.968 38.0035 127.129 46.5211 120.346 52.5153C126.232 51.9024 135.645 37.3735 135.645 37.3735C135.645 37.3735 132.019 47.4678 124.606 53.3041C132.808 55.1173 144.637 42.894 144.637 42.894C144.637 42.894 139.984 51.5687 133.911 55.1173C140.694 57.72 150 46.9941 150 46.9941C150 46.9941 140.694 61.348 125.867 60.7171C121.004 60.5094 106.289 45.958 74.7627 47.152C33.1236 48.7295 24.2918 66.3947 2.05186 78.3816Z" fill="white"/>
  <path opacity="0.35" d="M0.472626 82.7371C12.8936 88.9678 24.2504 81.7912 38.5646 85.8245C49.4462 88.8924 62.6963 92.6735 80.6758 90.0708C98.6569 87.4696 114.036 79.6615 121.371 65.7019C123.658 59.4728 132.963 67.1223 132.963 67.1223C132.963 67.1223 126.182 64.2831 126.34 65.6241C126.497 66.9652 136.513 71.6176 136.513 71.6176C136.513 71.6176 127.443 68.7784 127.996 70.9074C128.548 73.0364 139.351 81.554 139.351 81.554C139.351 81.554 127.128 72.2484 126.103 73.5093C125.077 74.7718 131.308 79.8987 131.308 79.8987C131.308 79.8987 120.976 73.5093 117.348 75.3941C114.738 76.7476 128.074 85.4978 128.074 85.4978C128.074 85.4978 119.399 78.8727 117.348 80.6073C115.298 82.3435 127.128 96.5388 127.128 96.5388C127.128 96.5388 113.719 82.0269 112.38 82.7371C111.039 83.4465 116.086 90.3874 116.086 90.3874C116.086 90.3874 109.461 83.1315 107.648 84.3932C105.835 85.6557 117.112 104.503 117.112 104.503C117.112 104.503 104.888 85.1827 99.8408 88.4147C107.767 105.805 104.809 108.289 104.809 108.289C104.809 108.289 103.798 90.5476 93.9259 91.0175C88.957 91.2547 96.2914 104.267 96.2914 104.267C96.2914 104.267 89.5411 92.3818 85.0451 92.6191C93.3309 108.299 90.3773 114.676 90.3773 114.676C90.3773 114.676 91.7479 101.284 80.5101 93.8326C84.7682 97.6169 77.8382 114.676 77.8382 114.676C77.8382 114.676 83.9343 89.5372 73.3421 94.3304C71.6682 95.0857 73.2239 106.87 73.2239 106.87C73.2239 106.87 71.0941 93.383 67.901 94.0932C66.0395 94.5062 56.0712 112.784 56.0712 112.784C56.0712 112.784 64.2341 93.0283 61.7496 93.8567C59.9403 94.4603 56.5449 102.611 56.5449 102.611C56.5449 102.611 58.2002 94.5661 56.5449 94.0932C54.8896 93.6202 45.6611 102.611 45.6611 102.611C45.6611 102.611 52.5226 94.5661 51.3395 92.91C49.5465 90.4006 47.4447 90.2824 44.9517 91.2547C41.3229 92.6681 36.434 99.2978 36.434 99.2978C36.434 99.2978 41.3074 92.5856 40.4556 90.0708C39.0881 86.0306 25.078 97.8782 25.078 97.8782C25.078 97.8782 33.3584 90.0708 31.4658 88.4147C29.5733 86.7587 19.2969 87.2705 16.0875 87.262C6.62397 87.2324 3.3445 85.0124 0.472626 82.7371Z" fill="white"/>
  <path d="M0 81.3169C12.4209 87.5468 23.7777 80.371 38.0904 84.405C48.9727 87.4714 62.2236 91.2533 80.2039 88.6506C98.1842 86.0479 113.563 78.2405 120.898 64.2825C123.185 58.0518 132.49 65.7013 132.49 65.7013C132.49 65.7013 125.708 62.8629 125.867 64.2039C126.024 65.5442 136.04 70.1966 136.04 70.1966C136.04 70.1966 126.97 67.3582 127.522 69.488C128.074 71.6162 138.879 80.1338 138.879 80.1338C138.879 80.1338 126.654 70.8274 125.63 72.0899C124.605 73.3516 130.835 78.4777 130.835 78.4777C130.835 78.4777 120.503 72.0899 116.875 73.9731C114.266 75.3266 127.601 84.0768 127.601 84.0768C127.601 84.0768 118.925 77.4525 116.875 79.1871C114.825 80.9233 126.656 95.1177 126.656 95.1177C126.656 95.1177 113.247 80.6067 111.907 81.3169C110.568 82.0271 115.614 88.9664 115.614 88.9664C115.614 88.9664 108.989 81.7105 107.175 82.973C105.362 84.2355 116.638 103.083 116.638 103.083C116.638 103.083 104.415 83.7617 99.3673 86.9945C107.294 104.384 104.336 106.869 104.336 106.869C104.336 106.869 103.325 89.1274 93.4524 89.598C88.4842 89.8345 95.8179 102.847 95.8179 102.847C95.8179 102.847 89.0676 90.9609 84.5731 91.1981C92.8589 106.878 89.9046 113.256 89.9046 113.256C89.9046 113.256 91.2744 99.8635 80.0366 92.4116C84.2947 96.1967 77.3647 113.256 77.3647 113.256C77.3647 113.256 83.4623 88.117 72.8702 92.9102C71.1962 93.6663 72.752 105.449 72.752 105.449C72.752 105.449 70.6214 91.9635 67.429 92.6729C65.5661 93.086 55.5977 111.363 55.5977 111.363C55.5977 111.363 63.7606 91.608 61.2769 92.4372C59.4668 93.0393 56.0715 101.19 56.0715 101.19C56.0715 101.19 57.7275 93.1459 56.0715 92.6729C54.4154 92.2 45.1892 101.19 45.1892 101.19C45.1892 101.19 52.0499 93.1459 50.866 91.4898C49.073 88.9796 46.972 88.863 44.479 89.8345C40.8495 91.2479 35.9614 97.8776 35.9614 97.8776C35.9614 97.8776 40.8347 91.1647 39.9829 88.6506C38.6154 84.6112 24.6054 96.458 24.6054 96.458C24.6054 96.458 32.8857 88.6506 30.9932 86.9945C29.1006 85.3385 18.8235 85.8511 15.6148 85.841C6.15134 85.8114 2.87265 83.5922 0 81.3169Z" fill="white"/>
</svg>