<svg viewBox="0 0 31 30" fill="none" xmlns="http://www.w3.org/2000/svg">
    <path d="M27.3875 10.8875C28.95 9.32497 28.2375 7.49997 27.3875 6.61247L23.6375 2.86247C22.0625 1.29997 20.25 2.01247 19.3625 2.86247L17.2375 4.99997H14C11.625 4.99997 10.25 6.24997 9.55 7.68747L4 13.2375V18.2375L3.1125 19.1125C1.55 20.6875 2.2625 22.5 3.1125 23.3875L6.8625 27.1375C7.5375 27.8125 8.2625 28.0625 8.95 28.0625C9.8375 28.0625 10.65 27.625 11.1375 27.1375L14.5125 23.75H19C21.125 23.75 22.2 22.425 22.5875 21.125C24 20.75 24.775 19.675 25.0875 18.625C27.025 18.125 27.75 16.2875 27.75 15V11.25H27.0125L27.3875 10.8875ZM25.25 15C25.25 15.5625 25.0125 16.25 24 16.25H22.75V17.5C22.75 18.0625 22.5125 18.75 21.5 18.75H20.25V20C20.25 20.5625 20.0125 21.25 19 21.25H13.4875L9.3875 25.35C9 25.7125 8.775 25.5 8.6375 25.3625L4.9 21.6375C4.5375 21.25 4.75 21.025 4.8875 20.8875L6.5 19.2625V14.2625L9 11.7625V13.75C9 15.2625 10 17.5 12.75 17.5C15.5 17.5 16.5 15.2625 16.5 13.75H25.25V15ZM25.6125 9.11247L23.4875 11.25H14V13.75C14 14.3125 13.7625 15 12.75 15C11.7375 15 11.5 14.3125 11.5 13.75V9.99997C11.5 9.42497 11.7125 7.49997 14 7.49997H18.2625L21.1125 4.64997C21.5 4.28747 21.725 4.49997 21.8625 4.63747L25.6 8.36247C25.9625 8.74997 25.75 8.97497 25.6125 9.11247Z" fill="#182825"/>
</svg>