<svg viewBox="0 0 31 30" fill="none" xmlns="http://www.w3.org/2000/svg">
    <path d="M15.5 15C14.125 15 12.9479 14.5104 11.9688 13.5312C10.9896 12.5521 10.5 11.375 10.5 10C10.5 8.625 10.9896 7.44792 11.9688 6.46875C12.9479 5.48958 14.125 5 15.5 5C16.875 5 18.0521 5.48958 19.0312 6.46875C20.0104 7.44792 20.5 8.625 20.5 10C20.5 11.375 20.0104 12.5521 19.0312 13.5312C18.0521 14.5104 16.875 15 15.5 15ZM5.5 22.5V21.5C5.5 20.7917 5.6825 20.1408 6.0475 19.5475C6.4125 18.9542 6.89667 18.5008 7.5 18.1875C8.79167 17.5417 10.1042 17.0575 11.4375 16.735C12.7708 16.4125 14.125 16.2508 15.5 16.25C16.875 16.2492 18.2292 16.4108 19.5625 16.735C20.8958 17.0592 22.2083 17.5433 23.5 18.1875C24.1042 18.5 24.5887 18.9533 24.9538 19.5475C25.3188 20.1417 25.5008 20.7925 25.5 21.5V22.5C25.5 23.1875 25.2554 23.7763 24.7663 24.2663C24.2771 24.7563 23.6883 25.0008 23 25H8C7.3125 25 6.72417 24.7554 6.235 24.2663C5.74583 23.7771 5.50083 23.1883 5.5 22.5ZM8 22.5H23V21.5C23 21.2708 22.9429 21.0625 22.8288 20.875C22.7146 20.6875 22.5633 20.5417 22.375 20.4375C21.25 19.875 20.1146 19.4533 18.9688 19.1725C17.8229 18.8917 16.6667 18.7508 15.5 18.75C14.3333 18.7492 13.1771 18.89 12.0313 19.1725C10.8854 19.455 9.75 19.8767 8.625 20.4375C8.4375 20.5417 8.28625 20.6875 8.17125 20.875C8.05625 21.0625 7.99917 21.2708 8 21.5V22.5ZM15.5 12.5C16.1875 12.5 16.7762 12.2554 17.2663 11.7663C17.7563 11.2771 18.0008 10.6883 18 10C17.9992 9.31167 17.7546 8.72333 17.2663 8.235C16.7779 7.74667 16.1892 7.50167 15.5 7.5C14.8108 7.49833 14.2225 7.74333 13.735 8.235C13.2475 8.72667 13.0025 9.315 13 10C12.9975 10.685 13.2425 11.2738 13.735 11.7663C14.2275 12.2587 14.8158 12.5033 15.5 12.5Z" fill="#182825"/>
</svg>