<svg viewBox="0 0 26 25" fill="none" xmlns="http://www.w3.org/2000/svg">
    <path d="M7.62506 10.0698C7.62506 9.33299 7.91776 8.62637 8.43875 8.10537C8.95975 7.58437 9.66638 7.29167 10.4032 7.29167H19.4303C19.7951 7.29167 20.1564 7.36353 20.4934 7.50314C20.8305 7.64276 21.1367 7.84739 21.3947 8.10537C21.6527 8.36334 21.8573 8.6696 21.9969 9.00665C22.1365 9.34371 22.2084 9.70497 22.2084 10.0698V19.0969C22.2084 19.4617 22.1365 19.823 21.9969 20.16C21.8573 20.4971 21.6527 20.8033 21.3947 21.0613C21.1367 21.3193 20.8305 21.5239 20.4934 21.6635C20.1564 21.8031 19.7951 21.875 19.4303 21.875H10.4032C10.0384 21.875 9.6771 21.8031 9.34004 21.6635C9.00299 21.5239 8.69673 21.3193 8.43875 21.0613C8.18078 20.8033 7.97615 20.4971 7.83653 20.16C7.69692 19.823 7.62506 19.4617 7.62506 19.0969V10.0698Z" stroke="#182825" stroke-width="2" stroke-linecap="round" stroke-linejoin="round"/>
    <path d="M4.51254 17.4344C4.19275 17.2527 3.92676 16.9896 3.7416 16.6718C3.55645 16.354 3.45873 15.9928 3.45837 15.625V5.20833C3.45837 4.0625 4.39587 3.125 5.54171 3.125H15.9584C16.7396 3.125 17.1646 3.52604 17.5209 4.16667" stroke="#182825" stroke-width="2" stroke-linecap="round" stroke-linejoin="round"/>
</svg>
