<svg width="31" height="30" viewBox="0 0 31 30" fill="none" xmlns="http://www.w3.org/2000/svg">
<path fill-rule="evenodd" clip-rule="evenodd" d="M15.75 23.75C16.0562 23.75 16.3517 23.8624 16.5805 24.0659C16.8093 24.2693 16.9554 24.5497 16.9913 24.8537L17 25V26.25C16.9996 26.5686 16.8777 26.875 16.6589 27.1067C16.4402 27.3384 16.1413 27.4778 15.8233 27.4965C15.5052 27.5151 15.192 27.4117 14.9477 27.2072C14.7034 27.0027 14.5464 26.7126 14.5087 26.3963L14.5 26.25V25C14.5 24.6685 14.6317 24.3505 14.8661 24.1161C15.1005 23.8817 15.4185 23.75 15.75 23.75ZM9.5625 21.1875C9.79684 21.4219 9.92848 21.7398 9.92848 22.0712C9.92848 22.4027 9.79684 22.7206 9.5625 22.955L8.67875 23.8387C8.56344 23.9581 8.42551 24.0534 8.27301 24.1189C8.1205 24.1844 7.95648 24.2189 7.7905 24.2203C7.62453 24.2218 7.45993 24.1901 7.30631 24.1273C7.15269 24.0644 7.01312 23.9716 6.89576 23.8542C6.77839 23.7369 6.68557 23.5973 6.62272 23.4437C6.55987 23.2901 6.52824 23.1255 6.52969 22.9595C6.53113 22.7935 6.56561 22.6295 6.63112 22.477C6.69663 22.3245 6.79186 22.1866 6.91125 22.0712L7.795 21.1875C8.02941 20.9532 8.34729 20.8215 8.67875 20.8215C9.01021 20.8215 9.32809 20.9532 9.5625 21.1875ZM23.705 21.1875L24.5887 22.0712C24.8164 22.307 24.9424 22.6228 24.9396 22.9505C24.9367 23.2782 24.8053 23.5918 24.5735 23.8235C24.3418 24.0553 24.0282 24.1867 23.7005 24.1896C23.3728 24.1924 23.057 24.0664 22.8212 23.8387L21.9375 22.955C21.7098 22.7192 21.5838 22.4035 21.5867 22.0757C21.5895 21.748 21.721 21.4345 21.9527 21.2027C22.1845 20.971 22.498 20.8395 22.8257 20.8367C23.1535 20.8338 23.4692 20.9598 23.705 21.1875ZM16.5212 2.5C17.1307 2.49987 17.7192 2.72236 18.1761 3.12565C18.6331 3.52895 18.9269 4.08526 19.0025 4.69L19.4775 8.49C20.9121 9.31165 22.035 10.5843 22.6716 12.11C23.3082 13.6358 23.4229 15.3291 22.9978 16.9267C22.5727 18.5244 21.6316 19.9368 20.3209 20.9443C19.0101 21.9519 17.4032 22.4981 15.75 22.4981C14.0968 22.4981 12.4899 21.9519 11.1791 20.9443C9.86842 19.9368 8.92733 18.5244 8.50221 16.9267C8.07709 15.3291 8.19175 13.6358 8.82838 12.11C9.465 10.5843 10.5879 9.31165 12.0225 8.49L12.4975 4.69C12.5731 4.08526 12.8669 3.52895 13.3239 3.12565C13.7808 2.72236 14.3693 2.49987 14.9788 2.5H16.5212ZM15.75 10C14.4239 10 13.1521 10.5268 12.2145 11.4645C11.2768 12.4021 10.75 13.6739 10.75 15C10.75 16.3261 11.2768 17.5979 12.2145 18.5355C13.1521 19.4732 14.4239 20 15.75 20C17.0761 20 18.3479 19.4732 19.2855 18.5355C20.2232 17.5979 20.75 16.3261 20.75 15C20.75 13.6739 20.2232 12.4021 19.2855 11.4645C18.3479 10.5268 17.0761 10 15.75 10ZM5.75 13.75C6.08152 13.75 6.39946 13.8817 6.63388 14.1161C6.8683 14.3505 7 14.6685 7 15C7 15.3315 6.8683 15.6495 6.63388 15.8839C6.39946 16.1183 6.08152 16.25 5.75 16.25H4.5C4.16848 16.25 3.85054 16.1183 3.61612 15.8839C3.3817 15.6495 3.25 15.3315 3.25 15C3.25 14.6685 3.3817 14.3505 3.61612 14.1161C3.85054 13.8817 4.16848 13.75 4.5 13.75H5.75ZM27 13.75C27.3315 13.75 27.6495 13.8817 27.8839 14.1161C28.1183 14.3505 28.25 14.6685 28.25 15C28.25 15.3315 28.1183 15.6495 27.8839 15.8839C27.6495 16.1183 27.3315 16.25 27 16.25H25.75C25.4185 16.25 25.1005 16.1183 24.8661 15.8839C24.6317 15.6495 24.5 15.3315 24.5 15C24.5 14.6685 24.6317 14.3505 24.8661 14.1161C25.1005 13.8817 25.4185 13.75 25.75 13.75H27ZM24.5887 6.1625C24.8231 6.39691 24.9547 6.7148 24.9547 7.04625C24.9547 7.37771 24.8231 7.69559 24.5887 7.93L23.705 8.81375C23.5897 8.93314 23.4518 9.02837 23.2993 9.09388C23.1467 9.15939 22.9827 9.19387 22.8167 9.19531C22.6508 9.19675 22.4862 9.16513 22.3326 9.10228C22.1789 9.03943 22.0394 8.94661 21.922 8.82924C21.8046 8.71188 21.7118 8.57231 21.649 8.41869C21.5861 8.26507 21.5545 8.10047 21.5559 7.9345C21.5574 7.76852 21.5919 7.6045 21.6574 7.45199C21.7229 7.29949 21.8181 7.16156 21.9375 7.04625L22.8212 6.1625C23.0557 5.92816 23.3735 5.79652 23.705 5.79652C24.0365 5.79652 24.3543 5.92816 24.5887 6.1625ZM8.67875 6.1625L9.5625 7.04625C9.78457 7.28306 9.90579 7.59698 9.90052 7.92159C9.89525 8.24619 9.7639 8.55601 9.53426 8.78549C9.30462 9.01497 8.9947 9.1461 8.6701 9.15114C8.34549 9.15618 8.03166 9.03474 7.795 8.8125L6.91125 7.92875C6.68918 7.69194 6.56796 7.37802 6.57323 7.05341C6.5785 6.72881 6.70985 6.41899 6.93949 6.18951C7.16913 5.96003 7.47904 5.8289 7.80365 5.82386C8.12826 5.81882 8.44209 5.94026 8.67875 6.1625ZM16.5212 5H14.9788L14.6663 7.5H16.8337L16.5212 5Z" fill="#182825"/>
</svg>
